<?xml version="1.0" encoding="utf-8"?>
<!-- Generator: Adobe Illustrator 16.0.4, SVG Export Plug-In . SVG Version: 6.00 Build 0)  -->
<!DOCTYPE svg PUBLIC "-//W3C//DTD SVG 1.1//EN" "http://www.w3.org/Graphics/SVG/1.1/DTD/svg11.dtd">
<svg version="1.1" id="Layer_1" xmlns="http://www.w3.org/2000/svg" xmlns:xlink="http://www.w3.org/1999/xlink" x="0px" y="0px"
	 width="104.113px" height="123.658px" viewBox="8.931 0.078 104.113 123.658" enable-background="new 8.931 0.078 104.113 123.658"
	 xml:space="preserve">
<g>
	<g>
		<g>
			<path fill="#1D1D1B" d="M14.428,68.552h5.001c0,3.565-2.451,5.632-5.238,5.632c-3.364,0-5.26-2.668-5.26-5.122
				c0-2.451,1.896-5.119,5.26-5.119c1.166,0,2.326,0.339,3.501,1.346l-0.797,0.94c-0.794-0.742-1.825-1.111-2.704-1.111
				c-2.073,0-3.929,1.661-3.929,3.944c0,2.311,1.904,3.944,3.929,3.944c1.792,0,3.449-1.2,3.87-3.275h-3.633V68.552z"/>
			<path fill="#1D1D1B" d="M22.857,64.101h5.132v1.173h-3.877v3.15h3.877v1.175h-3.877v3.251h3.877v1.176h-5.132V64.101z"/>
			<path fill="#1D1D1B" d="M36.389,63.943c3.367,0,5.26,2.668,5.26,5.119c0,2.454-1.893,5.122-5.26,5.122
				c-3.37,0-5.26-2.668-5.26-5.122C31.129,66.611,33.019,63.943,36.389,63.943z M36.389,73.007c2.027,0,3.929-1.594,3.929-3.944
				c0-2.348-1.901-3.944-3.929-3.944c-2.023,0-3.935,1.597-3.935,3.944C32.454,71.413,34.365,73.007,36.389,73.007z"/>
			<path fill="#1D1D1B" d="M45.132,64.101h1.255v8.749h3.482v1.176h-4.737V64.101z"/>
			<path fill="#1D1D1B" d="M57.932,63.943c3.37,0,5.26,2.668,5.26,5.119c0,2.454-1.89,5.122-5.26,5.122s-5.263-2.668-5.263-5.122
				C52.669,66.611,54.562,63.943,57.932,63.943z M57.932,73.007c2.021,0,3.929-1.594,3.929-3.944c0-2.348-1.908-3.944-3.929-3.944
				c-2.027,0-3.932,1.597-3.932,3.944C54,71.413,55.905,73.007,57.932,73.007z"/>
			<path fill="#1D1D1B" d="M71.912,68.552h5.004c0,3.565-2.461,5.632-5.242,5.632c-3.366,0-5.263-2.668-5.263-5.122
				c0-2.451,1.896-5.119,5.263-5.119c1.16,0,2.326,0.339,3.499,1.346l-0.797,0.94c-0.791-0.742-1.825-1.111-2.702-1.111
				c-2.075,0-3.932,1.661-3.932,3.944c0,2.311,1.908,3.944,3.932,3.944c1.789,0,3.447-1.2,3.862-3.275h-3.624V68.552z"/>
			<path fill="#1D1D1B" d="M80.283,64.101h1.254v9.925h-1.254V64.101z"/>
			<path fill="#1D1D1B" d="M92.783,66.137c-0.705-0.635-1.605-1.02-2.558-1.02c-2.079,0-3.933,1.661-3.933,3.944
				c0,2.311,1.905,3.944,3.933,3.944c1.099,0,1.956-0.406,2.649-1.057l0.797,0.9c-0.889,0.806-2.192,1.334-3.446,1.334
				c-3.37,0-5.263-2.668-5.263-5.122c0-2.451,1.893-5.119,5.263-5.119c1.315,0,2.612,0.537,3.403,1.267L92.783,66.137z"/>
			<path fill="#1D1D1B" d="M102.961,71.712h-4.622l-0.9,2.314h-1.37l4.035-9.925h1.093l4.032,9.925h-1.364L102.961,71.712z
				 M100.651,65.747l-1.881,4.869h3.761L100.651,65.747z"/>
			<path fill="#1D1D1B" d="M108.309,64.101h1.255v8.749h3.48v1.176h-4.735V64.101z"/>
		</g>
		<g>
			<path fill="#1D1D1B" d="M23.865,83.624c-0.168-1.179-0.846-1.894-1.902-1.894c-1.404,0-1.782,0.926-1.782,1.6
				c0,0.745,0.467,1.216,1.443,1.582l1.252,0.47c1.581,0.586,2.308,1.511,2.308,2.711c0,1.603-1.272,2.76-3.181,2.76
				c-1.798,0-3.077-0.95-3.232-2.931h1.251c0.104,1.083,0.653,1.838,2.049,1.838c1.083,0,1.861-0.688,1.861-1.561
				c0-0.772-0.638-1.267-1.535-1.621l-1.267-0.494c-1.469-0.577-2.204-1.432-2.204-2.714c0-1.706,1.426-2.735,3.053-2.735
				c1.646,0,2.921,0.978,3.064,2.989H23.865z"/>
			<path fill="#1D1D1B" d="M28.489,80.791h1.252v5.943c0,1.618,0.9,2.945,2.635,2.945c1.733,0,2.634-1.327,2.634-2.945v-5.943h1.252
				v6.31c0,2.14-1.615,3.752-3.913,3.752c-2.244,0-3.859-1.612-3.859-3.752V80.791z"/>
			<path fill="#1D1D1B" d="M41.27,86.474v4.225h-1.248v-9.908h2.854c1.904,0,3.324,1.096,3.324,3c0,1.771-1.396,2.867-3.01,2.958
				l3.858,3.95h-1.762L41.27,86.474z M41.27,85.708c0.172,0.013,0.354,0.013,1.097,0.013c1.917,0,2.582-0.833,2.582-1.917
				c0-1.16-0.797-1.917-2.097-1.917H41.27V85.708z"/>
			<path fill="#1D1D1B" d="M56.152,80.791h1.331l-3.663,9.908h-1.041l-3.666-9.908h1.331l2.842,7.912h0.024L56.152,80.791z"/>
			<path fill="#1D1D1B" d="M60.578,80.791h5.125v1.172h-3.87v3.145h3.87v1.172h-3.87v3.248h3.87v1.172h-5.125V80.791z"/>
			<path fill="#1D1D1B" d="M74.81,80.791h1.459l-3.352,5.958v3.95h-1.249v-3.95l-3.352-5.958h1.459l2.516,4.64L74.81,80.791z"/>
			<path fill="#1D1D1B" d="M89.353,80.635c3.366,0,5.256,2.659,5.256,5.11c0,2.454-1.89,5.107-5.256,5.107
				c-3.361,0-5.251-2.653-5.251-5.107C84.102,83.294,85.991,80.635,89.353,80.635z M89.353,89.679c2.026,0,3.929-1.587,3.929-3.935
				s-1.902-3.938-3.929-3.938c-2.021,0-3.923,1.59-3.923,3.938S87.331,89.679,89.353,89.679z"/>
			<path fill="#1D1D1B" d="M98.086,80.791h5.119v1.172h-3.868v3.145h3.868v1.172h-3.868v4.42h-1.251V80.791z"/>
		</g>
		<g>
			<path fill="#1D1D1B" d="M34.008,97.491h1.255v9.913h-1.176l-5.323-7.671H28.74v7.671h-1.258v-9.913h1.178l5.321,7.67h0.027
				V97.491z"/>
			<path fill="#1D1D1B" d="M43.939,97.33c3.363,0,5.256,2.662,5.256,5.117c0,2.451-1.893,5.112-5.256,5.112
				c-3.364,0-5.257-2.661-5.257-5.112C38.682,99.992,40.574,97.33,43.939,97.33z M43.939,106.385c2.021,0,3.925-1.594,3.925-3.938
				c0-2.348-1.904-3.938-3.925-3.938c-2.021,0-3.926,1.591-3.926,3.938C40.013,104.791,41.917,106.385,43.939,106.385z"/>
			<path fill="#1D1D1B" d="M53.923,103.177v4.228h-1.254v-9.913h2.86c1.901,0,3.324,1.094,3.324,2.999
				c0,1.773-1.398,2.869-3.014,2.961l3.862,3.953h-1.762L53.923,103.177z M53.923,102.407c0.171,0.012,0.352,0.012,1.093,0.012
				c1.921,0,2.586-0.836,2.586-1.917c0-1.159-0.794-1.917-2.097-1.917h-1.582V102.407z"/>
			<path fill="#1D1D1B" d="M73.219,97.491h1.328l-3.047,9.913h-0.968l-2.39-7.854h-0.021l-2.387,7.854h-0.968l-3.053-9.913h1.331
				l2.219,7.526h0.027l2.256-7.526h1.17l2.259,7.554h0.027L73.219,97.491z"/>
			<path fill="#1D1D1B" d="M83.021,105.094h-4.618l-0.895,2.311h-1.374l4.033-9.913h1.096l4.026,9.913h-1.367L83.021,105.094z
				 M80.716,99.132l-1.88,4.866h3.758L80.716,99.132z"/>
			<path fill="#1D1D1B" d="M93.033,97.491h1.46l-3.355,5.96v3.953h-1.251v-3.953l-3.35-5.96h1.466l2.513,4.645L93.033,97.491z"/>
		</g>
		<g>
			<path fill="#1D1D1B" d="M43.917,120.381h1.801v0.69h-1.801V120.381z"/>
			<path fill="#1D1D1B" d="M54.931,117.826h0.732v5.818h-0.687l-3.123-4.503h-0.021v4.503h-0.735v-5.818h0.692l3.123,4.499h0.019
				V117.826z"/>
			<path fill="#1D1D1B" d="M61.17,120.436h2.934c0,2.088-1.44,3.3-3.067,3.3c-1.976,0-3.093-1.561-3.093-3.001
				c0-1.441,1.117-2.998,3.093-2.998c0.678,0,1.358,0.192,2.051,0.794l-0.467,0.54c-0.467-0.43-1.074-0.644-1.584-0.644
				c-1.222,0-2.308,0.968-2.308,2.308c0,1.353,1.12,2.313,2.308,2.313c1.044,0,2.015-0.708,2.268-1.926H61.17V120.436z"/>
			<path fill="#1D1D1B" d="M66.314,117.826h0.736v3.489c0,0.949,0.528,1.733,1.541,1.733c1.026,0,1.551-0.784,1.551-1.733v-3.489
				h0.733v3.706c0,1.251-0.95,2.204-2.296,2.204c-1.315,0-2.266-0.953-2.266-2.204V117.826z"/>
			<path fill="#1D1D1B" d="M76.26,120.381h1.801v0.69H76.26V120.381z"/>
		</g>
	</g>
	<g>
		<path fill="#1D1D1B" d="M80.414,26.483c-0.431,0-0.824,0.339-0.824,0.801c0,0.469,0.394,0.803,0.824,0.803
			s0.821-0.334,0.821-0.803C81.236,26.822,80.845,26.483,80.414,26.483z"/>
		<g>
			<path fill="#1D1D1B" d="M44.326,26.483c-0.434,0-0.824,0.339-0.824,0.801c0,0.469,0.391,0.803,0.824,0.803
				c0.437,0,0.817-0.334,0.817-0.803C45.144,26.822,44.763,26.483,44.326,26.483z"/>
			<path fill="#1D1D1B" d="M44.326,25.836c0.372,0,0.72-0.244,0.72-0.728c0-0.472-0.348-0.722-0.72-0.722
				c-0.37,0-0.721,0.25-0.721,0.722C43.606,25.592,43.956,25.836,44.326,25.836z"/>
			<path fill="#1D1D1B" d="M60.972,0.078c-13.92,0-25.242,11.321-25.242,25.249c0,13.933,11.322,25.255,25.242,25.255
				c13.936,0,25.264-11.322,25.264-25.255C86.236,11.399,74.907,0.078,60.972,0.078z M41.6,28.773h-0.727v-4.298l-0.721,0.521
				v-0.769l0.721-0.53H41.6V28.773z M44.326,28.812c-0.84,0-1.539-0.621-1.539-1.521c0-0.484,0.205-0.89,0.586-1.142
				c-0.29-0.272-0.497-0.585-0.497-1.026c0-0.823,0.626-1.464,1.45-1.464c0.817,0,1.452,0.641,1.452,1.464
				c0,0.441-0.207,0.754-0.503,1.026c0.378,0.251,0.595,0.658,0.595,1.142C45.87,28.191,45.168,28.812,44.326,28.812z
				 M51.179,41.424c-0.088,0.11-0.253,0.128-0.36,0.03l-2.717-2.347c-0.106-0.098-0.125-0.266-0.03-0.37L56.79,28.8
				c0.137,0.466,0.216,0.777,0.231,0.849c0.049,0.208,0.223,0.382,0.431,0.422c0.873,0.167,1.768,0.394,2.567,0.604L51.179,41.424z
				 M73.739,41.656c-0.138-0.149-0.482-0.507-0.895-0.644c-0.013-0.006-0.027-0.037-0.027-0.037c-0.126-0.312-1.334-3.01-2.22-4.68
				c-1.963-3.685-3.776-2.714-7.14-1.206c0,0-0.062,0.033-0.095-0.07c0,0-0.51-1.905-1.554-3.825
				c-0.086-0.156,0.088-0.113,0.088-0.113c1.707,0.348,3.199,0.702,4.543,1.23c-1.23-0.665-2.678-1.261-4.332-1.798
				c-1.35-0.415-2.817-0.81-4.396-1.135c-0.08-0.012-0.08-0.067-0.08-0.067s-0.354-1.47-1.327-3.768
				c-0.046-0.11,0.063-0.101,0.063-0.101c2.314,0.238,4.292,0.968,5.349,1.462c-1.139-0.786-3.511-2.333-6.16-3.057
				c0,0-0.034,0-0.046-0.034c-0.724-1.494-1.438-2.743-2.348-4.124c0,0-0.116-0.168,0.064-0.138c1.44,0.241,2.604,0.591,3.382,0.884
				c-0.909-0.548-2.555-1.514-4.426-2.167c-1.157-1.601-2.312-2.932-3.7-4.322c0,0-0.11-0.098,0.021-0.073
				c0.965,0.171,1.755,0.353,2.313,0.551c-0.732-0.414-2.039-1.096-3.482-1.573c-0.761-0.707-1.478-1.31-2.29-1.946
				c-0.012-0.026-0.049-0.057-0.033-0.09c0.027-0.034,0.104-0.021,0.104-0.021c0.059,0.009,4.576,0.809,10.367,4.994
				c5.299,3.817,13.327,11.501,18.3,25.844C73.783,41.631,73.826,41.747,73.739,41.656z M74.346,20.758l-3.505-3.016
				c-0.113-0.101-0.271-0.088-0.36,0.021l-5.418,6.365c-0.739-0.956-1.355-1.653-2.079-2.479l5.073-5.862
				c0.092-0.115,0.083-0.273-0.018-0.371c0,0-1.041-0.91-1.108-0.974c-1.017-0.856-3.291-5.336-3.291-5.336
				c-0.03-0.076,0-0.15,0.128-0.116c1.111,0.331,5.214,1.455,6.228,2.259l1.236,0.992c0.271-0.312,0.556-0.04,0.781,0.144
				c0,0,1.279,1.124,1.39,1.223c0,0,0.339,0.305,0.104,0.606l3.715,3.208c0.119,0.098,0.129,0.266,0.037,0.378l-2.546,2.934
				C74.62,20.844,74.449,20.853,74.346,20.758z M77.7,28.271c-0.208,0.27-0.586,0.542-1.099,0.542c-0.656,0-1.368-0.365-1.475-1.312
				h0.727c0.079,0.36,0.32,0.588,0.721,0.588c0.72,0,0.72-0.609,0.72-1.09c0-0.554-0.14-0.977-0.735-0.977
				c-0.281,0-0.485,0.122-0.662,0.426h-0.681v-2.75h2.698v0.733h-2.018v1.147c0.244-0.195,0.494-0.276,0.817-0.276
				c0.379,0,0.724,0.166,0.897,0.361c0.287,0.301,0.4,0.554,0.4,1.394C78.012,27.732,77.926,27.996,77.7,28.271z M80.414,28.812
				c-0.843,0-1.551-0.621-1.551-1.521c0-0.484,0.223-0.89,0.607-1.142c-0.296-0.272-0.51-0.585-0.51-1.026
				c0-0.823,0.629-1.464,1.453-1.464c0.821,0,1.447,0.641,1.447,1.464c0,0.441-0.202,0.754-0.504,1.026
				c0.382,0.251,0.607,0.658,0.607,1.142C81.965,28.191,81.254,28.812,80.414,28.812z"/>
		</g>
		<path fill="#1D1D1B" d="M80.414,25.836c0.372,0,0.724-0.244,0.724-0.728c0-0.472-0.352-0.722-0.724-0.722
			c-0.366,0-0.729,0.25-0.729,0.722C79.685,25.592,80.048,25.836,80.414,25.836z"/>
	</g>
</g>
</svg>
